<?xml version="1.0" encoding="UTF-8"?><svg id="Layer_1" xmlns="http://www.w3.org/2000/svg" xmlns:xlink="http://www.w3.org/1999/xlink" viewBox="0 0 833.71 618.02"><defs><style>.cls-1{stroke:url(#New_Gradient_Swatch_2-2);}.cls-1,.cls-2,.cls-3,.cls-4,.cls-5{fill:none;stroke-miterlimit:10;stroke-width:32px;}.cls-2{stroke:url(#New_Gradient_Swatch_2-3);}.cls-3{stroke:url(#linear-gradient-2);}.cls-4{stroke:url(#New_Gradient_Swatch_2);}.cls-5{stroke:url(#linear-gradient);}</style><linearGradient id="linear-gradient" x1="0" y1="314.08" x2="833.71" y2="314.08" gradientUnits="userSpaceOnUse"><stop offset="0" stop-color="#ce3a32"/><stop offset=".27" stop-color="#c2855f"/><stop offset=".47" stop-color="#829348"/><stop offset=".74" stop-color="#769b8e"/><stop offset="1" stop-color="#2f9daa"/></linearGradient><linearGradient id="linear-gradient-2" x1="180.67" y1="353.4" x2="653.04" y2="353.4" gradientUnits="userSpaceOnUse"><stop offset=".03" stop-color="#d16d30"/><stop offset=".29" stop-color="#81a05f"/><stop offset=".57" stop-color="#83a665"/><stop offset=".81" stop-color="#51af96"/><stop offset="1" stop-color="#48ad91"/></linearGradient><linearGradient id="New_Gradient_Swatch_2" x1="395.18" y1="550" x2="427.21" y2="550" gradientUnits="userSpaceOnUse"><stop offset="0" stop-color="#d25430"/><stop offset=".27" stop-color="#c2a05f"/><stop offset=".47" stop-color="#83a665"/><stop offset=".74" stop-color="#87b8b2"/><stop offset="1" stop-color="#48ad91"/></linearGradient><linearGradient id="New_Gradient_Swatch_2-2" x1="350.04" y1="478.96" x2="483.67" y2="478.96" xlink:href="#New_Gradient_Swatch_2"/><linearGradient id="New_Gradient_Swatch_2-3" x1="0" y1="303.94" x2="833.71" y2="303.94" xlink:href="#New_Gradient_Swatch_2"/></defs><polygon class="cls-5" points="704.79 297.14 704.79 116.47 637.04 116.47 637.04 26.14 569.29 26.14 569.29 116.47 501.54 116.47 501.54 206.81 416.88 206.81 416.86 207.37 416.83 206.81 332.17 206.81 332.17 116.47 264.42 116.47 264.42 26.14 196.67 26.14 196.67 116.47 128.92 116.47 128.92 297.14 16 297.14 16 410.06 95.04 410.06 95.04 522.98 298.29 522.98 299.26 602.02 411.21 602.02 411.18 534.27 366.04 534.27 366.04 443.93 405.31 443.93 412.21 443.93 428.4 443.93 432.74 443.93 467.67 443.93 467.67 534.27 422.5 534.27 422.48 602.02 535.42 602.02 536.4 522.98 738.67 522.98 738.67 410.06 817.71 410.06 817.71 297.14 704.79 297.14"/><path class="cls-3" d="M309.58,421.15h-67.75v-67.75h67.75v67.75ZM343.46,342.11h-146.79v-56.46h146.79v56.46ZM591.88,421.15h-67.75v-67.75h67.75v67.75ZM637.04,342.11h-146.79v-56.46h146.79v56.46Z"/><polygon class="cls-4" points="411.21 591.88 411.21 524.13 411.18 524.13 411.21 591.88"/><polygon class="cls-1" points="467.67 433.79 432.74 433.79 428.4 433.79 412.21 433.79 405.31 433.79 366.04 433.79 366.04 524.13 411.18 524.13 411.21 524.13 422.5 524.13 467.67 524.13 467.67 433.79"/><path class="cls-2" d="M704.79,287V106.33h-67.75V16h-67.75v90.33h-67.75v90.33h-84.66l-.03.56-.03-.56h-84.66v-90.33h-67.75V16h-67.75v90.33h-67.75v180.67H16v112.92h79.04v112.92h203.25l.97,79.04h111.95l-.02-67.75h-45.14v-90.33h101.63v90.33h-45.17l-.03,67.75h112.94l.98-79.04h202.27v-112.92h79.04v-112.92h-112.92ZM309.58,411.21h-67.75v-67.75h67.75v67.75ZM343.46,332.17h-146.79v-56.46h146.79v56.46ZM591.88,411.21h-67.75v-67.75h67.75v67.75ZM637.04,332.17h-146.79v-56.46h146.79v56.46Z"/></svg>